<svg viewBox="0 0 330 200" xmlns="http://www.w3.org/2000/svg"><g><g><g><g><g><line x1="59.296875" y1="177" x2="54.296875" y2="177" style="visibility: inherit;" fill="rgb(0, 0, 0)" stroke="rgb(204, 204, 204)" stroke-width="1px"></line><line x1="59.296875" y1="154.875" x2="54.296875" y2="154.875" style="visibility: inherit;" fill="rgb(0, 0, 0)" stroke="rgb(204, 204, 204)" stroke-width="1px"></line><line x1="59.296875" y1="132.75" x2="54.296875" y2="132.75" style="visibility: inherit;" fill="rgb(0, 0, 0)" stroke="rgb(204, 204, 204)" stroke-width="1px"></line><line x1="59.296875" y1="110.625" x2="54.296875" y2="110.625" style="visibility: inherit;" fill="rgb(0, 0, 0)" stroke="rgb(204, 204, 204)" stroke-width="1px"></line><line x1="59.296875" y1="88.50000000000001" x2="54.296875" y2="88.50000000000001" style="visibility: inherit;" fill="rgb(0, 0, 0)" stroke="rgb(204, 204, 204)" stroke-width="1px"></line><line x1="59.296875" y1="66.37500000000001" x2="54.296875" y2="66.37500000000001" style="visibility: inherit;" fill="rgb(0, 0, 0)" stroke="rgb(204, 204, 204)" stroke-width="1px"></line><line x1="59.296875" y1="44.25" x2="54.296875" y2="44.25" style="visibility: inherit;" fill="rgb(0, 0, 0)" stroke="rgb(204, 204, 204)" stroke-width="1px"></line><line x1="59.296875" y1="22.12500000000003" x2="54.296875" y2="22.12500000000003" style="visibility: inherit;" fill="rgb(0, 0, 0)" stroke="rgb(204, 204, 204)" stroke-width="1px"></line><line x1="59.296875" y1="0" x2="54.296875" y2="0" style="visibility: inherit;" fill="rgb(0, 0, 0)" stroke="rgb(204, 204, 204)" stroke-width="1px"></line></g><g transform="translate(49.296875, 0)"><text x="0" y="177" dx="0em" dy="0.3em" style="text-anchor: end; visibility: hidden; font-family: &quot;Helvetica Neue&quot;, sans-serif; font-size: 12px; font-weight: 200;" fill="rgb(50, 49, 63)" stroke="none" stroke-width="1px">-0.12</text><text x="0" y="154.875" dx="0em" dy="0.3em" style="text-anchor: end; visibility: inherit; font-family: &quot;Helvetica Neue&quot;, sans-serif; font-size: 12px; font-weight: 200;" fill="rgb(50, 49, 63)" stroke="none" stroke-width="1px">-0.1</text><text x="0" y="132.75" dx="0em" dy="0.3em" style="text-anchor: end; visibility: hidden; font-family: &quot;Helvetica Neue&quot;, sans-serif; font-size: 12px; font-weight: 200;" fill="rgb(50, 49, 63)" stroke="none" stroke-width="1px">-0.08</text><text x="0" y="110.625" dx="0em" dy="0.3em" style="text-anchor: end; visibility: inherit; font-family: &quot;Helvetica Neue&quot;, sans-serif; font-size: 12px; font-weight: 200;" fill="rgb(50, 49, 63)" stroke="none" stroke-width="1px">-0.06</text><text x="0" y="88.50000000000001" dx="0em" dy="0.3em" style="text-anchor: end; visibility: hidden; font-family: &quot;Helvetica Neue&quot;, sans-serif; font-size: 12px; font-weight: 200;" fill="rgb(50, 49, 63)" stroke="none" stroke-width="1px">-0.04</text><text x="0" y="66.37500000000001" dx="0em" dy="0.3em" style="text-anchor: end; visibility: inherit; font-family: &quot;Helvetica Neue&quot;, sans-serif; font-size: 12px; font-weight: 200;" fill="rgb(50, 49, 63)" stroke="none" stroke-width="1px">-0.02</text><text x="0" y="44.25" dx="0em" dy="0.3em" style="text-anchor: end; visibility: hidden; font-family: &quot;Helvetica Neue&quot;, sans-serif; font-size: 12px; font-weight: 200;" fill="rgb(50, 49, 63)" stroke="none" stroke-width="1px">0</text><text x="0" y="22.12500000000003" dx="0em" dy="0.3em" style="text-anchor: end; visibility: inherit; font-family: &quot;Helvetica Neue&quot;, sans-serif; font-size: 12px; font-weight: 200;" fill="rgb(50, 49, 63)" stroke="none" stroke-width="1px">0.02</text><text x="0" y="0" dx="0em" dy="0.3em" style="text-anchor: end; visibility: hidden; font-family: &quot;Helvetica Neue&quot;, sans-serif; font-size: 12px; font-weight: 200;" fill="rgb(50, 49, 63)" stroke="none" stroke-width="1px">0.04</text></g><line x1="59.296875" y1="0" x2="59.296875" y2="177" fill="rgb(0, 0, 0)" stroke="rgb(204, 204, 204)" stroke-width="1px"></line></g></g><g transform="translate(59, 0)" clip-path="url(#clip_0)"><clipPath id="clip_0"><rect width="270" height="177"></rect></clipPath><g><g><g><line x1="0" y1="0" x2="0" y2="177" fill="rgb(0, 0, 0)" stroke="rgb(60, 60, 60)" stroke-width="1px" opacity="0.25"></line><line x1="22.55859375" y1="0" x2="22.55859375" y2="177" fill="rgb(0, 0, 0)" stroke="rgb(60, 60, 60)" stroke-width="1px" opacity="0.25"></line><line x1="45.1171875" y1="0" x2="45.1171875" y2="177" fill="rgb(0, 0, 0)" stroke="rgb(60, 60, 60)" stroke-width="1px" opacity="0.25"></line><line x1="67.67578125" y1="0" x2="67.67578125" y2="177" fill="rgb(0, 0, 0)" stroke="rgb(60, 60, 60)" stroke-width="1px" opacity="0.25"></line><line x1="90.234375" y1="0" x2="90.234375" y2="177" fill="rgb(0, 0, 0)" stroke="rgb(60, 60, 60)" stroke-width="1px" opacity="0.25"></line><line x1="112.79296875" y1="0" x2="112.79296875" y2="177" fill="rgb(0, 0, 0)" stroke="rgb(60, 60, 60)" stroke-width="1px" opacity="0.25"></line><line x1="135.3515625" y1="0" x2="135.3515625" y2="177" fill="rgb(0, 0, 0)" stroke="rgb(60, 60, 60)" stroke-width="1px" opacity="0.25"></line><line x1="157.91015625" y1="0" x2="157.91015625" y2="177" fill="rgb(0, 0, 0)" stroke="rgb(60, 60, 60)" stroke-width="1px" opacity="0.25"></line><line x1="180.46875" y1="0" x2="180.46875" y2="177" fill="rgb(0, 0, 0)" stroke="rgb(60, 60, 60)" stroke-width="1px" opacity="0.25"></line><line x1="203.02734375" y1="0" x2="203.02734375" y2="177" fill="rgb(0, 0, 0)" stroke="rgb(60, 60, 60)" stroke-width="1px" opacity="0.25"></line><line x1="225.5859375" y1="0" x2="225.5859375" y2="177" fill="rgb(0, 0, 0)" stroke="rgb(60, 60, 60)" stroke-width="1px" opacity="0.25"></line><line x1="248.14453125" y1="0" x2="248.14453125" y2="177" fill="rgb(0, 0, 0)" stroke="rgb(60, 60, 60)" stroke-width="1px" opacity="0.25"></line><line x1="270.703125" y1="0" x2="270.703125" y2="177" fill="rgb(0, 0, 0)" stroke="rgb(60, 60, 60)" stroke-width="1px" opacity="0.25"></line></g><g><line x1="0" y1="177" x2="270.703125" y2="177" fill="rgb(0, 0, 0)" stroke="rgb(60, 60, 60)" stroke-width="1px" opacity="0.25"></line><line x1="0" y1="154.875" x2="270.703125" y2="154.875" fill="rgb(0, 0, 0)" stroke="rgb(60, 60, 60)" stroke-width="1px" opacity="0.25"></line><line x1="0" y1="132.75" x2="270.703125" y2="132.75" fill="rgb(0, 0, 0)" stroke="rgb(60, 60, 60)" stroke-width="1px" opacity="0.25"></line><line x1="0" y1="110.625" x2="270.703125" y2="110.625" fill="rgb(0, 0, 0)" stroke="rgb(60, 60, 60)" stroke-width="1px" opacity="0.25"></line><line x1="0" y1="88.50000000000001" x2="270.703125" y2="88.50000000000001" fill="rgb(0, 0, 0)" stroke="rgb(60, 60, 60)" stroke-width="1px" opacity="0.25"></line><line x1="0" y1="66.37500000000001" x2="270.703125" y2="66.37500000000001" fill="rgb(0, 0, 0)" stroke="rgb(60, 60, 60)" stroke-width="1px" opacity="0.25"></line><line x1="0" y1="44.25" x2="270.703125" y2="44.25" fill="rgb(0, 0, 0)" stroke="rgb(60, 60, 60)" stroke-width="1px" opacity="0.25"></line><line x1="0" y1="22.12500000000003" x2="270.703125" y2="22.12500000000003" fill="rgb(0, 0, 0)" stroke="rgb(60, 60, 60)" stroke-width="1px" opacity="0.25"></line><line x1="0" y1="0" x2="270.703125" y2="0" fill="rgb(0, 0, 0)" stroke="rgb(60, 60, 60)" stroke-width="1px" opacity="0.25"></line></g></g></g><g><g><line x1="0" y1="44.25" x2="270.703125" y2="44.25" fill="rgb(0, 0, 0)" stroke="rgb(153, 153, 153)" stroke-width="1.5px"></line></g></g><g><g><line x1="22.55859375" y1="0" x2="22.55859375" y2="177" fill="rgb(0, 0, 0)" stroke="rgb(153, 153, 153)" stroke-width="1.5px"></line></g></g><g><g><g><g><g><path stroke="rgb(255, 112, 67)" stroke-width="2px" d="M22.55859375,53.272325347177684L23.6865234375,47.64173195782578L24.814453125,41.99981989155029L25.9423828125,36.534095863165845L27.0703125,33.60355574150671L28.1982421875,33.8616933813899L29.326171875,34.478346429727054L30.4541015625,34.02240956206836L31.58203125,33.306356060147266L32.7099609375,32.737357654334886L33.837890625,32.61007088809396L34.9658203125,34.41004089677395L36.09375,37.23028644081626L37.2216796875,43.933648298643305L38.349609375,49.58113438196051L39.4775390625,54.464131589221665L40.60546875,54.502017148826624L41.7333984375,53.17224274928452L42.861328125,52.50299905518969L43.9892578125,53.1210736526012L45.1171875,53.55636476107561L46.2451171875,53.58288331031859L47.373046875,52.92622623084968L48.5009765625,53.37348857401878L49.62890625,55.88277830945509L50.7568359375,58.2768748487849L51.884765625,60.164314394184686L53.0126953125,61.518864053631134L54.140625,62.35840192209591L55.2685546875,63.31309430706797L56.396484375,64.34395041338502L57.5244140625,65.8685106767548L58.65234375,63.44397296376462L59.7802734375,58.37437609558987L60.908203125,54.280107867644006L62.0361328125,53.312472438035456L63.1640625,54.241097205793736L64.2919921875,55.51018755842563L65.419921875,55.61520496503529L66.5478515625,54.43140658049414L67.67578125,51.59772562620685L68.8037109375,50.15872591844516L69.931640625,51.30798245730692L71.0595703125,55.24239926805079L72.1875,58.266960598030536L73.3154296875,61.279827142954815L74.443359375,62.49592408293624L75.5712890625,60.406331566792076L76.69921875,58.13070462306287L77.8271484375,55.10610525351707L78.955078125,53.90154943299683L80.0830078125,52.49807802966137L81.2109375,50.905364822442436L82.3388671875,49.882926719425896L83.466796875,48.75214506811844L84.5947265625,47.29352321636338L85.72265625,48.591958542899164L86.8505859375,55.71695303856582L87.978515625,62.48842784651724L89.1064453125,69.2127816487918L90.234375,79.27423583512454L91.3623046875,90.32994344261277L92.490234375,99.08748638362887L93.6181640625,107.12766966212519L94.74609375,109.74797561683494L95.8740234375,113.17323101337695L97.001953125,117.36642865703071L98.1298828125,122.1356605313156L99.2578125,124.67641963940466L100.3857421875,123.06100719128017L101.513671875,121.57968142973758L102.6416015625,122.09080467431176L103.76953125,120.75120041852253L104.8974609375,123.89155044904385L106.025390625,126.71461023316405L107.1533203125,127.29986296624318L108.28125,123.47042327615841L109.4091796875,122.52272380884423L110.537109375,119.46257463765701L111.6650390625,116.38962197071349L112.79296875,112.8117976323726L113.9208984375,111.22618782324865L115.048828125,110.29596484148963L116.1767578125,111.68568987962284L117.3046875,109.33173516246187L118.4326171875,108.42102907174831L119.560546875,109.95809631801549L120.6884765625,111.15037272427621L121.81640625,116.00683325263347L122.9443359375,117.59859728132182L124.072265625,117.3095674175888L125.2001953125,120.072467922948L126.328125,125.25309139551649L127.4560546875,127.61627455688674L128.583984375,127.0660778262446L129.7119140625,128.41611015517887L130.83984375,130.00362991746888L131.9677734375,129.84045385692494L133.095703125,133.4371066249846L134.2236328125,139.4645958383345L135.3515625,136.75377623748562L136.4794921875,136.58940215266813L137.607421875,136.62770050455373L138.7353515625,134.88710155152822L139.86328125,136.2488329757067L140.9912109375,138.24742155813055L142.119140625,140.04322131823227L143.2470703125,140.98410476282672L144.375,141.70953255763908L145.5029296875,143.64230223444855L146.630859375,146.11844525455092L147.7587890625,149.2724818935612L148.88671875,150.400073429234L150.0146484375,150.47670793624948L151.142578125,149.84608604962963L152.2705078125,149.65060744184458L153.3984375,150.66873673646572L154.5263671875,151.71737759067966L155.654296875,152.21308783891413L156.7822265625,153.0722037595666L157.91015625,154.24769918052297L159.0380859375,156.43433163346614L160.166015625,158.31654639486533L161.2939453125,159.45281518813408L162.421875,160.41444547290465L163.5498046875,162.2989801984421L164.677734375,161.99397819467734L165.8056640625,163.44539301382514L166.93359375,158.8557350786746L168.0615234375,152.48031223802093L169.189453125,142.9976190596123L170.3173828125,132.62893976162667L171.4453125,121.57226306544719L172.5732421875,111.60534845648397L173.701171875,100.41497070965582L174.8291015625,92.61210046598264L175.95703125,86.22559365079668L177.0849609375,80.48152195387851L178.212890625,76.60866022895289L179.3408203125,73.15507126586445L180.46875,71.30510382663046L181.5966796875,70.58420076108477L182.724609375,70.33655218060464L183.8525390625,71.15179079972597L184.98046875,70.89952951790626L186.1083984375,70.32782937118701L187.236328125,69.03867258409733L188.3642578125,68.84291750471338L189.4921875,71.04266142602589L190.6201171875,72.72654371022928L191.748046875,75.56559331042914L192.8759765625,76.5885820849514L194.00390625,78.20154074587083L195.1318359375,76.39734048847947L196.259765625,73.3949058779603L197.3876953125,69.73443477938477L198.515625,70.76943597493263L199.6435546875,73.8774494548377L200.771484375,76.09057394122998L201.8994140625,77.21558819200648L203.02734375,76.04045007723454L204.1552734375,73.38908758761961L205.283203125,71.33314681762445L206.4111328125,69.82848222848915L207.5390625,69.7479637385362L208.6669921875,67.61976935690366L209.794921875,64.12246663583873L210.9228515625,60.2007935017038L212.05078125,58.93942802190786L213.1787109375,62.157579720631276L214.306640625,65.91222751382145L215.4345703125,69.21070800773444L216.5625,69.020463664768L217.6904296875,65.1346248053389L218.818359375,61.868489672172956L219.9462890625,59.72497445674101L221.07421875,58.56064884850821L222.2021484375,57.4217446011793L223.330078125,56.50675365095907L224.4580078125,55.011063354229236L225.5859375,53.93214181506988L226.7138671875,52.39909990424654L227.841796875,53.90043848574753L228.9697265625,54.54473309475166L230.09765625,55.90997483250786L231.2255859375,54.687167832088335L232.353515625,51.876156973072696L233.4814453125,50.271357534012225L234.609375,50.66926052320365L235.7373046875,49.47713434230492L236.865234375,49.594167806021616L237.9931640625,49.2251515187601L239.12109375,50.27910672184815L240.2490234375,52.905406207930994L241.376953125,54.46143840113547L242.5048828125,60.07342711435568L243.6328125,61.655673638004416L244.7607421875,61.78366359138094L245.888671875,59.87547419742407L247.0166015625,58.25474632099666" style="fill: none;" fill="none"></path></g></g></g></g><g opacity="0.2"><g><g><g><path stroke="rgb(255, 112, 67)" stroke-width="2px" d="M22.55859375,53.272325347177684L23.6865234375,44.26337592421464L24.814453125,36.583584307925776L25.9423828125,30.106404405785725L27.0703125,29.777442558668554L28.1982421875,34.21879066689871L29.326171875,35.360170155297965L30.4541015625,33.35764923202805L31.58203125,32.25031623104587L32.7099609375,31.892461335053667L33.837890625,32.42029522033408L34.9658203125,37.100200552493334L36.09375,41.45144616585458L37.2216796875,53.975558501668274L38.349609375,58.04572509904392L39.4775390625,61.7851835321635L40.60546875,54.558829456334934L41.7333984375,51.177918779547326L42.861328125,51.49923546658829L43.9892578125,54.04812905425206L45.1171875,54.20927755138837L46.2451171875,53.62266026157886L47.373046875,51.94125357619487L48.5009765625,54.04437679052353L49.62890625,59.64669507765211L50.7568359375,61.86800944805145L51.884765625,62.99546888284385L53.0126953125,63.550686463247985L54.140625,63.617707951460034L55.2685546875,64.7451323568821L56.396484375,65.89023423101753L57.5244140625,68.155350768473L58.65234375,59.807166683720425L59.7802734375,50.76998115645256L60.908203125,48.13870570168365L62.0361328125,51.86101931857411L63.1640625,55.63403434306383L64.2919921875,57.41382307559252L65.419921875,55.772731074364856L66.5478515625,52.65570900763851L67.67578125,47.34720420045778L68.8037109375,48.00022635853384L69.931640625,53.03186726476997L71.0595703125,61.144024482462555L72.1875,62.8038025922142L73.3154296875,65.7991269598715L74.443359375,64.32006949279457L75.5712890625,57.27194279269315L76.69921875,54.71726420754567L77.8271484375,50.5692061992595L78.955078125,52.09471570223104L80.0830078125,50.39287092466839L81.2109375,48.51629501162097L82.3388671875,48.34926956490381L83.466796875,47.055972591158934L84.5947265625,45.10559043873218L85.72265625,50.53961153270211L86.8505859375,66.40444478206336L87.978515625,72.64564005844295L89.1064453125,79.29931235220283L90.234375,94.3664171146229L91.3623046875,106.91350485384466L92.490234375,112.2238007951528L93.6181640625,119.18794457986951L94.74609375,113.67843454889953L95.8740234375,118.31111410818994L97.001953125,123.65622512251139L98.1298828125,129.28950834274292L99.2578125,128.48755830153823L100.3857421875,120.6378885190934L101.513671875,119.35769278742373L102.6416015625,122.85748954117298L103.76953125,118.74179403483868L104.8974609375,128.60207549482584L106.025390625,130.94919990934432L107.1533203125,128.17774206586182L108.28125,117.72626374103129L109.4091796875,121.10117460787296L110.537109375,114.87235088087618L111.6650390625,111.78019297029824L112.79296875,107.44506112486125L113.9208984375,108.84777310956271L115.048828125,108.90063036885114L116.1767578125,113.77027743682265L117.3046875,105.80080308672042L118.4326171875,107.05496993567796L119.560546875,112.26369718741627L120.6884765625,112.93878733366729L121.81640625,123.29152404516935L122.9443359375,119.98624332435429L124.072265625,116.87602262198925L125.2001953125,124.21681868098676L126.328125,133.02402660436928L127.4560546875,131.1610492989421L128.583984375,126.24078273028135L129.7119140625,130.4411586485803L130.83984375,132.3849095609039L131.9677734375,129.595689766109L133.095703125,138.8320857770741L134.2236328125,148.5058296583593L135.3515625,132.68754683621228L136.4794921875,136.34284102544188L137.607421875,136.68514803238213L138.7353515625,132.27620312198997L139.86328125,138.29143011197448L140.9912109375,141.24530443176627L142.119140625,142.73692095838487L143.2470703125,142.39542992971838L144.375,142.79767424985766L145.5029296875,146.54145674966276L146.630859375,149.83265978470445L147.7587890625,154.00353685207665L148.88671875,152.09146073274314L150.0146484375,150.5916596967727L151.142578125,148.90015321969986L152.2705078125,149.35738953016698L153.3984375,152.19593067839742L154.5263671875,153.29033887200058L155.654296875,152.9566532112658L156.7822265625,154.36087764054537L157.91015625,156.01094231195748L159.0380859375,159.71428031288087L160.166015625,161.13986853696406L161.2939453125,161.15721837803721L162.421875,161.85689090006053L163.5498046875,165.1257822867483L164.677734375,161.53647518903017L165.8056640625,165.6225152425468L166.93359375,151.97124817594886L168.0615234375,142.9171779770404L169.189453125,128.77357929199934L170.3173828125,117.07592081464827L171.4453125,104.98724802117796L172.5732421875,96.6549765430391L173.701171875,83.62940408941358L174.8291015625,80.90779510047287L175.95703125,76.6458334280178L177.0849609375,71.86541440850124L178.212890625,70.79936764156446L179.3408203125,67.97468782123178L180.46875,68.53015266777948L181.5966796875,69.50284616276622L182.724609375,69.96507930988446L183.8525390625,72.37464872840792L184.98046875,70.5211375951767L186.1083984375,69.47027915110812L187.236328125,67.10493740346283L188.3642578125,68.54928488563746L189.4921875,74.34227730799466L190.6201171875,75.2523671365343L191.748046875,79.82416771072894L192.8759765625,78.12306524673477L194.00390625,80.62097873724997L195.1318359375,73.69104010239244L196.259765625,68.89125396218151L197.3876953125,64.2437281315215L198.515625,72.32193776825443L199.6435546875,78.53946967469528L200.771484375,79.41026067081839L201.8994140625,78.9031095681712L203.02734375,74.2777429050766L204.1552734375,69.41204385319725L205.283203125,68.24923566263169L206.4111328125,67.5714853447862L207.5390625,69.62718600360677L208.6669921875,64.42747778445482L209.794921875,58.876512554241344L210.9228515625,54.318283800501376L212.05078125,57.04737980221398L213.1787109375,66.9848072687164L214.306640625,71.5441992036067L215.4345703125,74.15842874860391L216.5625,68.73509715031832L217.6904296875,59.30586651619524L218.818359375,56.969286972424015L219.9462890625,56.50970163359307L221.07421875,56.814160436159L222.2021484375,55.713388230185956L223.330078125,55.13426722562872L224.4580078125,52.767527909134515L225.5859375,52.313759506330825L226.7138671875,50.099537038011476L227.841796875,56.152446357999L228.9697265625,55.51117500825785L230.09765625,57.95783743914217L231.2255859375,52.85295733145904L232.353515625,47.65964068454923L233.4814453125,47.86415837542154L234.609375,51.26611500699073L235.7373046875,47.688945070956834L236.865234375,49.76971800159663L237.9931640625,48.67162708786782L239.12109375,51.86003952648025L240.2490234375,56.84485543705523L241.376953125,56.7954866909422L242.5048828125,68.49141018418595L243.6328125,64.02904342347756L244.7607421875,61.97564852144569L245.888671875,57.013190106488764L247.0166015625,55.823654506355524" style="fill: none;" fill="none"></path></g></g></g></g></g></g><g transform="translate(59, 177)" clip-path="url(#clip_1)"><clipPath id="clip_1"><rect width="270" height="23"></rect></clipPath><g><g><line x1="0" y1="0" x2="0" y2="5" style="visibility: inherit;" fill="rgb(0, 0, 0)" stroke="rgb(204, 204, 204)" stroke-width="1px"></line><line x1="22.55859375" y1="0" x2="22.55859375" y2="5" style="visibility: inherit;" fill="rgb(0, 0, 0)" stroke="rgb(204, 204, 204)" stroke-width="1px"></line><line x1="45.1171875" y1="0" x2="45.1171875" y2="5" style="visibility: inherit;" fill="rgb(0, 0, 0)" stroke="rgb(204, 204, 204)" stroke-width="1px"></line><line x1="67.67578125" y1="0" x2="67.67578125" y2="5" style="visibility: inherit;" fill="rgb(0, 0, 0)" stroke="rgb(204, 204, 204)" stroke-width="1px"></line><line x1="90.234375" y1="0" x2="90.234375" y2="5" style="visibility: inherit;" fill="rgb(0, 0, 0)" stroke="rgb(204, 204, 204)" stroke-width="1px"></line><line x1="112.79296875" y1="0" x2="112.79296875" y2="5" style="visibility: inherit;" fill="rgb(0, 0, 0)" stroke="rgb(204, 204, 204)" stroke-width="1px"></line><line x1="135.3515625" y1="0" x2="135.3515625" y2="5" style="visibility: inherit;" fill="rgb(0, 0, 0)" stroke="rgb(204, 204, 204)" stroke-width="1px"></line><line x1="157.91015625" y1="0" x2="157.91015625" y2="5" style="visibility: inherit;" fill="rgb(0, 0, 0)" stroke="rgb(204, 204, 204)" stroke-width="1px"></line><line x1="180.46875" y1="0" x2="180.46875" y2="5" style="visibility: inherit;" fill="rgb(0, 0, 0)" stroke="rgb(204, 204, 204)" stroke-width="1px"></line><line x1="203.02734375" y1="0" x2="203.02734375" y2="5" style="visibility: inherit;" fill="rgb(0, 0, 0)" stroke="rgb(204, 204, 204)" stroke-width="1px"></line><line x1="225.5859375" y1="0" x2="225.5859375" y2="5" style="visibility: inherit;" fill="rgb(0, 0, 0)" stroke="rgb(204, 204, 204)" stroke-width="1px"></line><line x1="248.14453125" y1="0" x2="248.14453125" y2="5" style="visibility: inherit;" fill="rgb(0, 0, 0)" stroke="rgb(204, 204, 204)" stroke-width="1px"></line><line x1="270.703125" y1="0" x2="270.703125" y2="5" style="visibility: inherit;" fill="rgb(0, 0, 0)" stroke="rgb(204, 204, 204)" stroke-width="1px"></line></g><g transform="translate(0, 8)"><text x="0" y="0" dx="0em" dy="0.95em" style="text-anchor: middle; visibility: hidden; font-family: &quot;Helvetica Neue&quot;, sans-serif; font-size: 12px; font-weight: 200;" fill="rgb(50, 49, 63)" stroke="none" stroke-width="1px">-20</text><text x="22.55859375" y="0" dx="0em" dy="0.95em" style="text-anchor: middle; visibility: inherit; font-family: &quot;Helvetica Neue&quot;, sans-serif; font-size: 12px; font-weight: 200;" fill="rgb(50, 49, 63)" stroke="none" stroke-width="1px">0</text><text x="45.1171875" y="0" dx="0em" dy="0.95em" style="text-anchor: middle; visibility: hidden; font-family: &quot;Helvetica Neue&quot;, sans-serif; font-size: 12px; font-weight: 200;" fill="rgb(50, 49, 63)" stroke="none" stroke-width="1px">20</text><text x="67.67578125" y="0" dx="0em" dy="0.95em" style="text-anchor: middle; visibility: inherit; font-family: &quot;Helvetica Neue&quot;, sans-serif; font-size: 12px; font-weight: 200;" fill="rgb(50, 49, 63)" stroke="none" stroke-width="1px">40</text><text x="90.234375" y="0" dx="0em" dy="0.95em" style="text-anchor: middle; visibility: hidden; font-family: &quot;Helvetica Neue&quot;, sans-serif; font-size: 12px; font-weight: 200;" fill="rgb(50, 49, 63)" stroke="none" stroke-width="1px">60</text><text x="112.79296875" y="0" dx="0em" dy="0.95em" style="text-anchor: middle; visibility: inherit; font-family: &quot;Helvetica Neue&quot;, sans-serif; font-size: 12px; font-weight: 200;" fill="rgb(50, 49, 63)" stroke="none" stroke-width="1px">80</text><text x="135.3515625" y="0" dx="0em" dy="0.95em" style="text-anchor: middle; visibility: hidden; font-family: &quot;Helvetica Neue&quot;, sans-serif; font-size: 12px; font-weight: 200;" fill="rgb(50, 49, 63)" stroke="none" stroke-width="1px">100</text><text x="157.91015625" y="0" dx="0em" dy="0.95em" style="text-anchor: middle; visibility: inherit; font-family: &quot;Helvetica Neue&quot;, sans-serif; font-size: 12px; font-weight: 200;" fill="rgb(50, 49, 63)" stroke="none" stroke-width="1px">120</text><text x="180.46875" y="0" dx="0em" dy="0.95em" style="text-anchor: middle; visibility: hidden; font-family: &quot;Helvetica Neue&quot;, sans-serif; font-size: 12px; font-weight: 200;" fill="rgb(50, 49, 63)" stroke="none" stroke-width="1px">140</text><text x="203.02734375" y="0" dx="0em" dy="0.95em" style="text-anchor: middle; visibility: inherit; font-family: &quot;Helvetica Neue&quot;, sans-serif; font-size: 12px; font-weight: 200;" fill="rgb(50, 49, 63)" stroke="none" stroke-width="1px">160</text><text x="225.5859375" y="0" dx="0em" dy="0.95em" style="text-anchor: middle; visibility: hidden; font-family: &quot;Helvetica Neue&quot;, sans-serif; font-size: 12px; font-weight: 200;" fill="rgb(50, 49, 63)" stroke="none" stroke-width="1px">180</text><text x="248.14453125" y="0" dx="0em" dy="0.95em" style="text-anchor: middle; visibility: inherit; font-family: &quot;Helvetica Neue&quot;, sans-serif; font-size: 12px; font-weight: 200;" fill="rgb(50, 49, 63)" stroke="none" stroke-width="1px">200</text><text x="270.703125" y="0" dx="0em" dy="0.95em" style="text-anchor: middle; visibility: hidden; font-family: &quot;Helvetica Neue&quot;, sans-serif; font-size: 12px; font-weight: 200;" fill="rgb(50, 49, 63)" stroke="none" stroke-width="1px">220</text></g><line x1="0" y1="0" x2="270.703125" y2="0" fill="rgb(0, 0, 0)" stroke="rgb(204, 204, 204)" stroke-width="1px"></line></g></g></g></g></svg>