<svg viewBox="0 0 330 200" xmlns="http://www.w3.org/2000/svg"><g><g><g><g><g><line x1="29.71875" y1="177" x2="24.71875" y2="177" style="visibility: inherit;" fill="rgb(0, 0, 0)" stroke="rgb(204, 204, 204)" stroke-width="1px"></line><line x1="29.71875" y1="160.9090909090909" x2="24.71875" y2="160.9090909090909" style="visibility: inherit;" fill="rgb(0, 0, 0)" stroke="rgb(204, 204, 204)" stroke-width="1px"></line><line x1="29.71875" y1="144.8181818181818" x2="24.71875" y2="144.8181818181818" style="visibility: inherit;" fill="rgb(0, 0, 0)" stroke="rgb(204, 204, 204)" stroke-width="1px"></line><line x1="29.71875" y1="128.72727272727275" x2="24.71875" y2="128.72727272727275" style="visibility: inherit;" fill="rgb(0, 0, 0)" stroke="rgb(204, 204, 204)" stroke-width="1px"></line><line x1="29.71875" y1="112.63636363636364" x2="24.71875" y2="112.63636363636364" style="visibility: inherit;" fill="rgb(0, 0, 0)" stroke="rgb(204, 204, 204)" stroke-width="1px"></line><line x1="29.71875" y1="96.54545454545455" x2="24.71875" y2="96.54545454545455" style="visibility: inherit;" fill="rgb(0, 0, 0)" stroke="rgb(204, 204, 204)" stroke-width="1px"></line><line x1="29.71875" y1="80.45454545454547" x2="24.71875" y2="80.45454545454547" style="visibility: inherit;" fill="rgb(0, 0, 0)" stroke="rgb(204, 204, 204)" stroke-width="1px"></line><line x1="29.71875" y1="64.36363636363636" x2="24.71875" y2="64.36363636363636" style="visibility: inherit;" fill="rgb(0, 0, 0)" stroke="rgb(204, 204, 204)" stroke-width="1px"></line><line x1="29.71875" y1="48.27272727272728" x2="24.71875" y2="48.27272727272728" style="visibility: inherit;" fill="rgb(0, 0, 0)" stroke="rgb(204, 204, 204)" stroke-width="1px"></line><line x1="29.71875" y1="32.18181818181819" x2="24.71875" y2="32.18181818181819" style="visibility: inherit;" fill="rgb(0, 0, 0)" stroke="rgb(204, 204, 204)" stroke-width="1px"></line><line x1="29.71875" y1="16.090909090909093" x2="24.71875" y2="16.090909090909093" style="visibility: inherit;" fill="rgb(0, 0, 0)" stroke="rgb(204, 204, 204)" stroke-width="1px"></line><line x1="29.71875" y1="0" x2="24.71875" y2="0" style="visibility: inherit;" fill="rgb(0, 0, 0)" stroke="rgb(204, 204, 204)" stroke-width="1px"></line></g><g transform="translate(19.71875, 0)"><text x="0" y="177" dx="0em" dy="0.3em" style="text-anchor: end; visibility: hidden; font-family: &quot;Helvetica Neue&quot;, sans-serif; font-size: 12px; font-weight: 200;" fill="rgb(50, 49, 63)" stroke="none" stroke-width="1px">-5</text><text x="0" y="160.9090909090909" dx="0em" dy="0.3em" style="text-anchor: end; visibility: inherit; font-family: &quot;Helvetica Neue&quot;, sans-serif; font-size: 12px; font-weight: 200;" fill="rgb(50, 49, 63)" stroke="none" stroke-width="1px">0</text><text x="0" y="144.8181818181818" dx="0em" dy="0.3em" style="text-anchor: end; visibility: hidden; font-family: &quot;Helvetica Neue&quot;, sans-serif; font-size: 12px; font-weight: 200;" fill="rgb(50, 49, 63)" stroke="none" stroke-width="1px">5</text><text x="0" y="128.72727272727275" dx="0em" dy="0.3em" style="text-anchor: end; visibility: inherit; font-family: &quot;Helvetica Neue&quot;, sans-serif; font-size: 12px; font-weight: 200;" fill="rgb(50, 49, 63)" stroke="none" stroke-width="1px">10</text><text x="0" y="112.63636363636364" dx="0em" dy="0.3em" style="text-anchor: end; visibility: hidden; font-family: &quot;Helvetica Neue&quot;, sans-serif; font-size: 12px; font-weight: 200;" fill="rgb(50, 49, 63)" stroke="none" stroke-width="1px">15</text><text x="0" y="96.54545454545455" dx="0em" dy="0.3em" style="text-anchor: end; visibility: inherit; font-family: &quot;Helvetica Neue&quot;, sans-serif; font-size: 12px; font-weight: 200;" fill="rgb(50, 49, 63)" stroke="none" stroke-width="1px">20</text><text x="0" y="80.45454545454547" dx="0em" dy="0.3em" style="text-anchor: end; visibility: hidden; font-family: &quot;Helvetica Neue&quot;, sans-serif; font-size: 12px; font-weight: 200;" fill="rgb(50, 49, 63)" stroke="none" stroke-width="1px">25</text><text x="0" y="64.36363636363636" dx="0em" dy="0.3em" style="text-anchor: end; visibility: inherit; font-family: &quot;Helvetica Neue&quot;, sans-serif; font-size: 12px; font-weight: 200;" fill="rgb(50, 49, 63)" stroke="none" stroke-width="1px">30</text><text x="0" y="48.27272727272728" dx="0em" dy="0.3em" style="text-anchor: end; visibility: hidden; font-family: &quot;Helvetica Neue&quot;, sans-serif; font-size: 12px; font-weight: 200;" fill="rgb(50, 49, 63)" stroke="none" stroke-width="1px">35</text><text x="0" y="32.18181818181819" dx="0em" dy="0.3em" style="text-anchor: end; visibility: inherit; font-family: &quot;Helvetica Neue&quot;, sans-serif; font-size: 12px; font-weight: 200;" fill="rgb(50, 49, 63)" stroke="none" stroke-width="1px">40</text><text x="0" y="16.090909090909093" dx="0em" dy="0.3em" style="text-anchor: end; visibility: hidden; font-family: &quot;Helvetica Neue&quot;, sans-serif; font-size: 12px; font-weight: 200;" fill="rgb(50, 49, 63)" stroke="none" stroke-width="1px">45</text><text x="0" y="0" dx="0em" dy="0.3em" style="text-anchor: end; visibility: hidden; font-family: &quot;Helvetica Neue&quot;, sans-serif; font-size: 12px; font-weight: 200;" fill="rgb(50, 49, 63)" stroke="none" stroke-width="1px">50</text></g><line x1="29.71875" y1="0" x2="29.71875" y2="177" fill="rgb(0, 0, 0)" stroke="rgb(204, 204, 204)" stroke-width="1px"></line></g></g><g transform="translate(29, 0)" clip-path="url(#clip_0)"><clipPath id="clip_0"><rect width="300" height="177"></rect></clipPath><g><g><g><line x1="0" y1="0" x2="0" y2="177" fill="rgb(0, 0, 0)" stroke="rgb(60, 60, 60)" stroke-width="1px" opacity="0.25"></line><line x1="25.0234375" y1="0" x2="25.0234375" y2="177" fill="rgb(0, 0, 0)" stroke="rgb(60, 60, 60)" stroke-width="1px" opacity="0.25"></line><line x1="50.046875" y1="0" x2="50.046875" y2="177" fill="rgb(0, 0, 0)" stroke="rgb(60, 60, 60)" stroke-width="1px" opacity="0.25"></line><line x1="75.0703125" y1="0" x2="75.0703125" y2="177" fill="rgb(0, 0, 0)" stroke="rgb(60, 60, 60)" stroke-width="1px" opacity="0.25"></line><line x1="100.09375" y1="0" x2="100.09375" y2="177" fill="rgb(0, 0, 0)" stroke="rgb(60, 60, 60)" stroke-width="1px" opacity="0.25"></line><line x1="125.1171875" y1="0" x2="125.1171875" y2="177" fill="rgb(0, 0, 0)" stroke="rgb(60, 60, 60)" stroke-width="1px" opacity="0.25"></line><line x1="150.140625" y1="0" x2="150.140625" y2="177" fill="rgb(0, 0, 0)" stroke="rgb(60, 60, 60)" stroke-width="1px" opacity="0.25"></line><line x1="175.1640625" y1="0" x2="175.1640625" y2="177" fill="rgb(0, 0, 0)" stroke="rgb(60, 60, 60)" stroke-width="1px" opacity="0.25"></line><line x1="200.1875" y1="0" x2="200.1875" y2="177" fill="rgb(0, 0, 0)" stroke="rgb(60, 60, 60)" stroke-width="1px" opacity="0.25"></line><line x1="225.2109375" y1="0" x2="225.2109375" y2="177" fill="rgb(0, 0, 0)" stroke="rgb(60, 60, 60)" stroke-width="1px" opacity="0.25"></line><line x1="250.234375" y1="0" x2="250.234375" y2="177" fill="rgb(0, 0, 0)" stroke="rgb(60, 60, 60)" stroke-width="1px" opacity="0.25"></line><line x1="275.2578125" y1="0" x2="275.2578125" y2="177" fill="rgb(0, 0, 0)" stroke="rgb(60, 60, 60)" stroke-width="1px" opacity="0.25"></line><line x1="300.28125" y1="0" x2="300.28125" y2="177" fill="rgb(0, 0, 0)" stroke="rgb(60, 60, 60)" stroke-width="1px" opacity="0.25"></line></g><g><line x1="0" y1="177" x2="300.28125" y2="177" fill="rgb(0, 0, 0)" stroke="rgb(60, 60, 60)" stroke-width="1px" opacity="0.25"></line><line x1="0" y1="160.9090909090909" x2="300.28125" y2="160.9090909090909" fill="rgb(0, 0, 0)" stroke="rgb(60, 60, 60)" stroke-width="1px" opacity="0.25"></line><line x1="0" y1="144.8181818181818" x2="300.28125" y2="144.8181818181818" fill="rgb(0, 0, 0)" stroke="rgb(60, 60, 60)" stroke-width="1px" opacity="0.25"></line><line x1="0" y1="128.72727272727275" x2="300.28125" y2="128.72727272727275" fill="rgb(0, 0, 0)" stroke="rgb(60, 60, 60)" stroke-width="1px" opacity="0.25"></line><line x1="0" y1="112.63636363636364" x2="300.28125" y2="112.63636363636364" fill="rgb(0, 0, 0)" stroke="rgb(60, 60, 60)" stroke-width="1px" opacity="0.25"></line><line x1="0" y1="96.54545454545455" x2="300.28125" y2="96.54545454545455" fill="rgb(0, 0, 0)" stroke="rgb(60, 60, 60)" stroke-width="1px" opacity="0.25"></line><line x1="0" y1="80.45454545454547" x2="300.28125" y2="80.45454545454547" fill="rgb(0, 0, 0)" stroke="rgb(60, 60, 60)" stroke-width="1px" opacity="0.25"></line><line x1="0" y1="64.36363636363636" x2="300.28125" y2="64.36363636363636" fill="rgb(0, 0, 0)" stroke="rgb(60, 60, 60)" stroke-width="1px" opacity="0.25"></line><line x1="0" y1="48.27272727272728" x2="300.28125" y2="48.27272727272728" fill="rgb(0, 0, 0)" stroke="rgb(60, 60, 60)" stroke-width="1px" opacity="0.25"></line><line x1="0" y1="32.18181818181819" x2="300.28125" y2="32.18181818181819" fill="rgb(0, 0, 0)" stroke="rgb(60, 60, 60)" stroke-width="1px" opacity="0.25"></line><line x1="0" y1="16.090909090909093" x2="300.28125" y2="16.090909090909093" fill="rgb(0, 0, 0)" stroke="rgb(60, 60, 60)" stroke-width="1px" opacity="0.25"></line><line x1="0" y1="0" x2="300.28125" y2="0" fill="rgb(0, 0, 0)" stroke="rgb(60, 60, 60)" stroke-width="1px" opacity="0.25"></line></g></g></g><g><g><line x1="0" y1="160.9090909090909" x2="300.28125" y2="160.9090909090909" fill="rgb(0, 0, 0)" stroke="rgb(153, 153, 153)" stroke-width="1.5px"></line></g></g><g><g><line x1="25.0234375" y1="0" x2="25.0234375" y2="177" fill="rgb(0, 0, 0)" stroke="rgb(153, 153, 153)" stroke-width="1.5px"></line></g></g><g><g><g><g><g><path stroke="rgb(255, 112, 67)" stroke-width="2px" d="M25.0234375,137.09454514763573L26.274609374999997,138.7036364403638L27.525781249999998,139.52460099416675L28.776953125000002,138.99942506937418L30.028125000000003,137.0565796254313L31.279296875,138.1527260701855L32.530468750000004,138.24700203858762L33.781640625,139.34926063497207L35.0328125,139.21841937519702L36.283984375,138.6227226476014L37.53515625,138.78440172815928L38.786328125000004,137.8489685616297L40.0375,136.77343095567497L41.288671875000006,135.09838205344312L42.539843749999996,137.18510116238494L43.791015625,137.92145000218574L45.0421875,137.84813056358027L46.293359375,137.0317042673102L47.54453125,136.54190155916234L48.795703125,138.0502868707813L50.046875,138.69782281383306L51.298046875000004,137.28412962648378L52.549218749999994,137.465752183019L53.800390625,136.5449014919242L55.051562499999996,137.27967025685058L56.302734375,137.46307543976658L57.553906250000004,137.57311834928834L58.805078125,136.35187050513954L60.056250000000006,137.1638498749901L61.307421874999996,135.84885557988414L62.55859375,133.51513072913767L63.809765625,135.46180586513916L65.06093750000001,137.4021743980669L66.31210937499999,137.02166838706574L67.56328125,137.5657283143195L68.814453125,136.60489152413578L70.065625,137.5731164931275L71.316796875,138.9264156009748L72.56796875,139.73839506246713L73.819140625,140.22558273820476L75.0703125,140.51789534323055L76.321484375,138.6336460504129L77.57265625000001,139.04782411676757L78.823828125,139.038876042713L80.075,135.4291433160152L81.326171875,137.12512247611517L82.57734375000001,136.85543724478654L83.82851562500001,138.495808046982L85.07968749999999,136.39057524619616L86.33085937499999,136.67216320677426L87.58203125,137.35602519679514L88.833203125,136.2216153636016L90.084375,137.08569649088972L91.33554687499999,137.08923595358812L92.58671875,138.1211780585538L93.837890625,137.19561568051324L95.0890625,134.3231870990699L96.34023437500001,134.14445820504295L97.59140625,133.5223110411343L98.842578125,130.05956868839002L100.09375,120.25828568546802L101.34492187500001,62.11424512066367L102.59609375000001,54.518003582074954L103.84726562499999,38.11734858590148L105.09843749999999,56.854408660485404L106.349609375,45.955555269311446L107.60078125,26.800971489445516L108.851953125,-17.90341907055503L110.10312499999999,19.380129884793234L111.354296875,48.44407842193152L112.60546875,59.446083907850834L113.856640625,57.80874223591255L115.10781250000001,69.69906450547685L116.358984375,24.312531576599326L117.61015625,33.124248182909156L118.861328125,57.20545800065457L120.11250000000001,71.13927529144833L121.36367187500001,60.96283888425289L122.61484374999999,58.976250749319476L123.86601562499999,54.95229688624829L125.1171875,66.44046904083987L126.368359375,51.44973596995847L127.61953125,45.28729710954079L128.870703125,44.42183477540132L130.12187500000002,61.40946450160442L131.373046875,53.0653131003767L132.62421874999998,53.20791316873098L133.875390625,63.33420195563757L135.1265625,34.39615851913007L136.377734375,46.383149656932574L137.62890625,65.67570748492216L138.880078125,31.166877072185514L140.13125,29.513219116624526L141.382421875,41.393749160737315L142.63359375,41.570794950987846L143.884765625,47.59847500637039L145.1359375,33.96563144047886L146.387109375,20.636834391853L147.63828125,5.173375326606816L148.88945312500002,8.768027160186392L150.140625,34.61063349581889L151.39179687499998,24.885653806875183L152.64296875,52.77720997488771L153.89414062499998,72.60159773009421L155.14531250000002,48.96750507471316L156.396484375,45.600137444241966L157.64765625,50.53099155745424L158.898828125,61.98550451643723L160.15,62.93675725531688L161.401171875,23.859509880755837L162.65234375,20.752069564817162L163.90351562499998,10.906513484051857L165.15468750000002,47.22172676330487L166.405859375,66.69376234859905L167.65703125000002,40.27371293672513L168.908203125,38.83913881716646L170.15937499999998,42.61257419939079L171.410546875,33.54863641083654L172.66171874999998,69.04554548286555L173.91289062500002,45.54660099910322L175.1640625,36.59632521793668L176.415234375,23.24506785803473L177.66640625,31.968858896639034L178.917578125,59.60167848329148L180.16875,49.14864541783356L181.419921875,60.641188232811274L182.67109374999998,48.99998468484836L183.92226562500002,67.76071710152515L185.1734375,96.7815210472421L186.42460937500002,113.93654911474552L187.67578125,123.45720244164784L188.92695312499998,130.19941225131572L190.178125,132.44255619617073L191.42929687499998,134.56080669050294L192.68046875000002,136.60412050070204L193.931640625,136.54283605954873L195.1828125,136.24861048111055L196.433984375,137.1018935613936L197.68515625,136.58404498221745L198.936328125,137.30315426205775L200.1875,138.2495290436349L201.43867187499998,137.01517197163548L202.68984375000002,136.78946694210882L203.941015625,136.3965890106466L205.19218750000002,137.96304419271496L206.443359375,137.3581902747565L207.69453124999998,136.2229144103817L208.945703125,138.37374864622902L210.19687499999998,135.2875224060657L211.44804687500002,136.52524071636668L212.69921875,136.49550818894755L213.950390625,137.2500321860958L215.2015625,136.41547385711203L216.452734375,137.45946588692124L217.70390625,137.05604329128028L218.955078125,135.26926209287674L220.20624999999998,134.96955750125383L221.45742187500002,133.75991631893413L222.70859375,135.8661313640145L223.95976562500002,137.6447696047357L225.2109375,137.68213473564194L226.46210937499998,137.96200811411245L227.71328125,135.81284098657605L228.96445312499998,134.52334071005419L230.21562500000002,136.83909521235952L231.466796875,137.97109361381598L232.71796875,138.9077469546166L233.969140625,136.895194118371L235.2203125,136.9749345300769L236.471484375,134.96314253622796L237.72265625,132.98370321249936L238.97382812499998,136.43022192749962L240.22500000000002,136.4384969156273L241.476171875,136.70091620843067L242.72734375000002,137.37327699778567L243.978515625,137.7766934713987L245.22968749999998,137.5038341418935L246.480859375,138.11248205779015L247.73203124999998,137.9627622074746L248.98320312500002,137.3580210836123L250.234375,135.19299446834918L251.485546875,134.9237969265373L252.73671875,134.24736857395771L253.987890625,135.12878490350215L255.2390625,136.6874525147553L256.490234375,137.1077444816537L257.74140625,137.10246474804651L258.992578125,137.0992969078822L260.24375000000003,136.83994190385684L261.494921875,137.97160162871438L262.74609375,136.59096122275642L263.997265625,135.24766715168917L265.24843749999997,136.50132756374077L266.499609375,135.1938869562798L267.75078125,134.4094225918032L269.001953125,133.42383537326376L270.253125,135.4070284966855L271.504296875,135.30967164346586L272.75546875,136.28107595888002L274.006640625,137.89373636165504" style="fill: none;" fill="none"></path></g></g></g></g><g opacity="0.2"><g><g><g><path stroke="rgb(255, 112, 67)" stroke-width="2px" d="M25.0234375,137.09454514763573L26.274609374999997,139.66909121600065L27.525781249999998,140.31272696581755L28.776953125000002,138.38181818181818L30.028125000000003,134.52000061381946L31.279296875,139.66909121600065L32.530468750000004,138.38181818181818L33.781640625,140.9563642501831L35.0328125,139.02545393163507L36.283984375,137.73818243200128L37.53515625,139.02545393163507L38.786328125000004,136.45090939781883L40.0375,135.16363636363636L41.288671875000006,132.58909029527143L42.539843749999996,140.31272696581755L43.791015625,139.02545393163507L45.0421875,137.73818243200128L46.293359375,135.80727211345325L47.54453125,135.80727211345325L48.795703125,140.31272696581755L50.046875,139.66909121600065L51.298046875000004,135.16363636363636L52.549218749999994,137.73818243200128L53.800390625,135.16363636363636L55.051562499999996,138.38181818181818L56.302734375,137.73818243200128L57.553906250000004,137.73818243200128L58.805078125,134.52000061381946L60.056250000000006,138.38181818181818L61.307421874999996,133.87636486400257L62.55859375,130.01454422690654L63.809765625,138.38181818181818L65.06093750000001,140.31272696581755L66.31210937499999,136.45090939781883L67.56328125,138.38181818181818L68.814453125,135.16363636363636L70.065625,139.02545393163507L71.316796875,140.9563642501831L72.56796875,140.9563642501831L73.819140625,140.9563642501831L75.0703125,140.9563642501831L76.321484375,135.80727211345325L77.57265625000001,139.66909121600065L78.823828125,139.02545393163507L80.075,130.01454422690654L81.326171875,139.66909121600065L82.57734375000001,136.45090939781883L83.82851562500001,140.9563642501831L85.07968749999999,133.23272604508833L86.33085937499999,137.09454514763573L87.58203125,138.38181818181818L88.833203125,134.52000061381946L90.084375,138.38181818181818L91.33554687499999,137.09454514763573L92.58671875,139.66909121600065L93.837890625,135.80727211345325L95.0890625,130.01454422690654L96.34023437500001,133.87636486400257L97.59140625,132.58909029527143L98.842578125,124.86545515927402L100.09375,105.55636118108576L101.34492187500001,-25.10181572654028L102.59609375000001,43.123641274192124L103.84726562499999,13.516366091641515L105.09843749999999,84.95999877236108L106.349609375,29.60727518255061L107.60078125,-1.930904180353366L108.851953125,-84.96000491055577L110.10312499999999,75.30545331781562L111.354296875,92.04000122763894L112.60546875,75.94909213672986L113.856640625,55.352729728005144L115.10781250000001,87.53454790982332L116.358984375,-43.76726781671698L117.61015625,46.34182309237394L118.861328125,93.32727272727273L120.11250000000001,92.04000122763894L121.36367187500001,45.6981842734597L122.61484374999999,55.996368546919385L123.86601562499999,48.91636609164152L125.1171875,83.67272727272729L126.368359375,28.96363636363637L127.61953125,36.043638818914246L128.870703125,43.123641274192124L130.12187500000002,86.8909090909091L131.373046875,40.54908599853516L132.62421874999998,53.42181327126242L133.875390625,78.52363513599744L135.1265625,-9.010906635631216L136.377734375,64.36363636363636L137.62890625,94.61454422690652L138.880078125,-20.596368546919393L140.13125,27.03273218328303L141.382421875,59.21454422690651L142.63359375,41.83636363636364L143.884765625,56.63999508944424L145.1359375,13.516366091641515L146.387109375,0.6436388189142406L147.63828125,-18.02181327126243L148.88945312500002,14.160004910555756L150.140625,73.37454299926758L151.39179687499998,10.298184273459697L152.64296875,94.61454422690652L153.89414062499998,102.33817936290394L155.14531250000002,13.516366091641515L156.396484375,40.54908599853516L157.64765625,57.92727272727272L158.898828125,79.16727395491168L160.15,64.36363636363636L161.401171875,-34.756361181085765L162.65234375,16.090909090909093L163.90351562499998,-3.8618206370960593L165.15468750000002,101.6945466821844L166.405859375,95.9018157265403L167.65703125000002,0.6436388189142406L168.908203125,36.68727763782849L170.15937499999998,48.27272727272728L171.410546875,19.952729728005153L172.66171874999998,122.29090909090908L173.91289062500002,10.298184273459697L175.1640625,23.17091154618697L176.415234375,3.2181818181818187L177.66640625,45.05454545454546L178.917578125,101.05090786327015L180.16875,33.46909581964667L181.419921875,77.88000245527789L182.67109374999998,31.538179362903946L183.92226562500002,95.9018157265403L185.1734375,140.31272696581755L186.42460937500002,139.66909121600065L187.67578125,137.73818243200128L188.92695312499998,140.31272696581755L190.178125,135.80727211345325L191.42929687499998,137.73818243200128L192.68046875000002,139.66909121600065L193.931640625,136.45090939781883L195.1828125,135.80727211345325L196.433984375,138.38181818181818L197.68515625,135.80727211345325L198.936328125,138.38181818181818L200.1875,139.66909121600065L201.43867187499998,135.16363636363636L202.68984375000002,136.45090939781883L203.941015625,135.80727211345325L205.19218750000002,140.31272696581755L206.443359375,136.45090939781883L207.69453124999998,134.52000061381946L208.945703125,141.6L210.19687499999998,130.65818304582075L211.44804687500002,138.38181818181818L212.69921875,136.45090939781883L213.950390625,138.38181818181818L215.2015625,135.16363636363636L216.452734375,139.02545393163507L217.70390625,136.45090939781883L218.955078125,132.58909029527143L220.20624999999998,134.52000061381946L221.45742187500002,131.94545454545454L222.70859375,139.02545393163507L223.95976562500002,140.31272696581755L225.2109375,137.73818243200128L226.46210937499998,138.38181818181818L227.71328125,132.58909029527143L228.96445312499998,132.58909029527143L230.21562500000002,140.31272696581755L231.466796875,139.66909121600065L232.71796875,140.31272696581755L233.969140625,133.87636486400257L235.2203125,137.09454514763573L236.471484375,131.94545454545454L237.72265625,130.01454422690654L238.97382812499998,141.6L240.22500000000002,136.45090939781883L241.476171875,137.09454514763573L242.72734375000002,138.38181818181818L243.978515625,138.38181818181818L245.22968749999998,137.09454514763573L246.480859375,139.02545393163507L247.73203124999998,137.73818243200128L248.98320312500002,136.45090939781883L250.234375,131.94545454545454L251.485546875,134.52000061381946L252.73671875,133.23272604508833L253.987890625,136.45090939781883L255.2390625,139.02545393163507L256.490234375,137.73818243200128L257.74140625,137.09454514763573L258.992578125,137.09454514763573L260.24375000000003,136.45090939781883L261.494921875,139.66909121600065L262.74609375,134.52000061381946L263.997265625,133.23272604508833L265.24843749999997,138.38181818181818L266.499609375,133.23272604508833L267.75078125,133.23272604508833L269.001953125,131.94545454545454L270.253125,138.38181818181818L271.504296875,135.16363636363636L272.75546875,137.73818243200128L274.006640625,140.31272696581755" style="fill: none;" fill="none"></path></g></g></g></g></g></g><g transform="translate(29, 177)" clip-path="url(#clip_1)"><clipPath id="clip_1"><rect width="300" height="23"></rect></clipPath><g><g><line x1="0" y1="0" x2="0" y2="5" style="visibility: inherit;" fill="rgb(0, 0, 0)" stroke="rgb(204, 204, 204)" stroke-width="1px"></line><line x1="25.0234375" y1="0" x2="25.0234375" y2="5" style="visibility: inherit;" fill="rgb(0, 0, 0)" stroke="rgb(204, 204, 204)" stroke-width="1px"></line><line x1="50.046875" y1="0" x2="50.046875" y2="5" style="visibility: inherit;" fill="rgb(0, 0, 0)" stroke="rgb(204, 204, 204)" stroke-width="1px"></line><line x1="75.0703125" y1="0" x2="75.0703125" y2="5" style="visibility: inherit;" fill="rgb(0, 0, 0)" stroke="rgb(204, 204, 204)" stroke-width="1px"></line><line x1="100.09375" y1="0" x2="100.09375" y2="5" style="visibility: inherit;" fill="rgb(0, 0, 0)" stroke="rgb(204, 204, 204)" stroke-width="1px"></line><line x1="125.1171875" y1="0" x2="125.1171875" y2="5" style="visibility: inherit;" fill="rgb(0, 0, 0)" stroke="rgb(204, 204, 204)" stroke-width="1px"></line><line x1="150.140625" y1="0" x2="150.140625" y2="5" style="visibility: inherit;" fill="rgb(0, 0, 0)" stroke="rgb(204, 204, 204)" stroke-width="1px"></line><line x1="175.1640625" y1="0" x2="175.1640625" y2="5" style="visibility: inherit;" fill="rgb(0, 0, 0)" stroke="rgb(204, 204, 204)" stroke-width="1px"></line><line x1="200.1875" y1="0" x2="200.1875" y2="5" style="visibility: inherit;" fill="rgb(0, 0, 0)" stroke="rgb(204, 204, 204)" stroke-width="1px"></line><line x1="225.2109375" y1="0" x2="225.2109375" y2="5" style="visibility: inherit;" fill="rgb(0, 0, 0)" stroke="rgb(204, 204, 204)" stroke-width="1px"></line><line x1="250.234375" y1="0" x2="250.234375" y2="5" style="visibility: inherit;" fill="rgb(0, 0, 0)" stroke="rgb(204, 204, 204)" stroke-width="1px"></line><line x1="275.2578125" y1="0" x2="275.2578125" y2="5" style="visibility: inherit;" fill="rgb(0, 0, 0)" stroke="rgb(204, 204, 204)" stroke-width="1px"></line><line x1="300.28125" y1="0" x2="300.28125" y2="5" style="visibility: inherit;" fill="rgb(0, 0, 0)" stroke="rgb(204, 204, 204)" stroke-width="1px"></line></g><g transform="translate(0, 8)"><text x="0" y="0" dx="0em" dy="0.95em" style="text-anchor: middle; visibility: hidden; font-family: &quot;Helvetica Neue&quot;, sans-serif; font-size: 12px; font-weight: 200;" fill="rgb(50, 49, 63)" stroke="none" stroke-width="1px">-20</text><text x="25.0234375" y="0" dx="0em" dy="0.95em" style="text-anchor: middle; visibility: inherit; font-family: &quot;Helvetica Neue&quot;, sans-serif; font-size: 12px; font-weight: 200;" fill="rgb(50, 49, 63)" stroke="none" stroke-width="1px">0</text><text x="50.046875" y="0" dx="0em" dy="0.95em" style="text-anchor: middle; visibility: inherit; font-family: &quot;Helvetica Neue&quot;, sans-serif; font-size: 12px; font-weight: 200;" fill="rgb(50, 49, 63)" stroke="none" stroke-width="1px">20</text><text x="75.0703125" y="0" dx="0em" dy="0.95em" style="text-anchor: middle; visibility: inherit; font-family: &quot;Helvetica Neue&quot;, sans-serif; font-size: 12px; font-weight: 200;" fill="rgb(50, 49, 63)" stroke="none" stroke-width="1px">40</text><text x="100.09375" y="0" dx="0em" dy="0.95em" style="text-anchor: middle; visibility: inherit; font-family: &quot;Helvetica Neue&quot;, sans-serif; font-size: 12px; font-weight: 200;" fill="rgb(50, 49, 63)" stroke="none" stroke-width="1px">60</text><text x="125.1171875" y="0" dx="0em" dy="0.95em" style="text-anchor: middle; visibility: inherit; font-family: &quot;Helvetica Neue&quot;, sans-serif; font-size: 12px; font-weight: 200;" fill="rgb(50, 49, 63)" stroke="none" stroke-width="1px">80</text><text x="150.140625" y="0" dx="0em" dy="0.95em" style="text-anchor: middle; visibility: inherit; font-family: &quot;Helvetica Neue&quot;, sans-serif; font-size: 12px; font-weight: 200;" fill="rgb(50, 49, 63)" stroke="none" stroke-width="1px">100</text><text x="175.1640625" y="0" dx="0em" dy="0.95em" style="text-anchor: middle; visibility: inherit; font-family: &quot;Helvetica Neue&quot;, sans-serif; font-size: 12px; font-weight: 200;" fill="rgb(50, 49, 63)" stroke="none" stroke-width="1px">120</text><text x="200.1875" y="0" dx="0em" dy="0.95em" style="text-anchor: middle; visibility: inherit; font-family: &quot;Helvetica Neue&quot;, sans-serif; font-size: 12px; font-weight: 200;" fill="rgb(50, 49, 63)" stroke="none" stroke-width="1px">140</text><text x="225.2109375" y="0" dx="0em" dy="0.95em" style="text-anchor: middle; visibility: inherit; font-family: &quot;Helvetica Neue&quot;, sans-serif; font-size: 12px; font-weight: 200;" fill="rgb(50, 49, 63)" stroke="none" stroke-width="1px">160</text><text x="250.234375" y="0" dx="0em" dy="0.95em" style="text-anchor: middle; visibility: inherit; font-family: &quot;Helvetica Neue&quot;, sans-serif; font-size: 12px; font-weight: 200;" fill="rgb(50, 49, 63)" stroke="none" stroke-width="1px">180</text><text x="275.2578125" y="0" dx="0em" dy="0.95em" style="text-anchor: middle; visibility: inherit; font-family: &quot;Helvetica Neue&quot;, sans-serif; font-size: 12px; font-weight: 200;" fill="rgb(50, 49, 63)" stroke="none" stroke-width="1px">200</text><text x="300.28125" y="0" dx="0em" dy="0.95em" style="text-anchor: middle; visibility: hidden; font-family: &quot;Helvetica Neue&quot;, sans-serif; font-size: 12px; font-weight: 200;" fill="rgb(50, 49, 63)" stroke="none" stroke-width="1px">220</text></g><line x1="0" y1="0" x2="300.28125" y2="0" fill="rgb(0, 0, 0)" stroke="rgb(204, 204, 204)" stroke-width="1px"></line></g></g></g></g></svg>