<svg viewBox="0 0 330 200" xmlns="http://www.w3.org/2000/svg"><g><g><g><g><g><line x1="59.296875" y1="177" x2="54.296875" y2="177" style="visibility: inherit;" fill="rgb(0, 0, 0)" stroke="rgb(204, 204, 204)" stroke-width="1px"></line><line x1="59.296875" y1="160.9090909090909" x2="54.296875" y2="160.9090909090909" style="visibility: inherit;" fill="rgb(0, 0, 0)" stroke="rgb(204, 204, 204)" stroke-width="1px"></line><line x1="59.296875" y1="144.8181818181818" x2="54.296875" y2="144.8181818181818" style="visibility: inherit;" fill="rgb(0, 0, 0)" stroke="rgb(204, 204, 204)" stroke-width="1px"></line><line x1="59.296875" y1="128.72727272727272" x2="54.296875" y2="128.72727272727272" style="visibility: inherit;" fill="rgb(0, 0, 0)" stroke="rgb(204, 204, 204)" stroke-width="1px"></line><line x1="59.296875" y1="112.63636363636364" x2="54.296875" y2="112.63636363636364" style="visibility: inherit;" fill="rgb(0, 0, 0)" stroke="rgb(204, 204, 204)" stroke-width="1px"></line><line x1="59.296875" y1="96.54545454545455" x2="54.296875" y2="96.54545454545455" style="visibility: inherit;" fill="rgb(0, 0, 0)" stroke="rgb(204, 204, 204)" stroke-width="1px"></line><line x1="59.296875" y1="80.45454545454544" x2="54.296875" y2="80.45454545454544" style="visibility: inherit;" fill="rgb(0, 0, 0)" stroke="rgb(204, 204, 204)" stroke-width="1px"></line><line x1="59.296875" y1="64.36363636363636" x2="54.296875" y2="64.36363636363636" style="visibility: inherit;" fill="rgb(0, 0, 0)" stroke="rgb(204, 204, 204)" stroke-width="1px"></line><line x1="59.296875" y1="48.27272727272728" x2="54.296875" y2="48.27272727272728" style="visibility: inherit;" fill="rgb(0, 0, 0)" stroke="rgb(204, 204, 204)" stroke-width="1px"></line><line x1="59.296875" y1="32.18181818181819" x2="54.296875" y2="32.18181818181819" style="visibility: inherit;" fill="rgb(0, 0, 0)" stroke="rgb(204, 204, 204)" stroke-width="1px"></line><line x1="59.296875" y1="16.090909090909093" x2="54.296875" y2="16.090909090909093" style="visibility: inherit;" fill="rgb(0, 0, 0)" stroke="rgb(204, 204, 204)" stroke-width="1px"></line><line x1="59.296875" y1="0" x2="54.296875" y2="0" style="visibility: inherit;" fill="rgb(0, 0, 0)" stroke="rgb(204, 204, 204)" stroke-width="1px"></line></g><g transform="translate(49.296875, 0)"><text x="0" y="177" dx="0em" dy="0.3em" style="text-anchor: end; visibility: hidden; font-family: &quot;Helvetica Neue&quot;, sans-serif; font-size: 12px; font-weight: 200;" fill="rgb(50, 49, 63)" stroke="none" stroke-width="1px">-0.4</text><text x="0" y="160.9090909090909" dx="0em" dy="0.3em" style="text-anchor: end; visibility: inherit; font-family: &quot;Helvetica Neue&quot;, sans-serif; font-size: 12px; font-weight: 200;" fill="rgb(50, 49, 63)" stroke="none" stroke-width="1px">-0.35</text><text x="0" y="144.8181818181818" dx="0em" dy="0.3em" style="text-anchor: end; visibility: hidden; font-family: &quot;Helvetica Neue&quot;, sans-serif; font-size: 12px; font-weight: 200;" fill="rgb(50, 49, 63)" stroke="none" stroke-width="1px">-0.3</text><text x="0" y="128.72727272727272" dx="0em" dy="0.3em" style="text-anchor: end; visibility: inherit; font-family: &quot;Helvetica Neue&quot;, sans-serif; font-size: 12px; font-weight: 200;" fill="rgb(50, 49, 63)" stroke="none" stroke-width="1px">-0.25</text><text x="0" y="112.63636363636364" dx="0em" dy="0.3em" style="text-anchor: end; visibility: hidden; font-family: &quot;Helvetica Neue&quot;, sans-serif; font-size: 12px; font-weight: 200;" fill="rgb(50, 49, 63)" stroke="none" stroke-width="1px">-0.2</text><text x="0" y="96.54545454545455" dx="0em" dy="0.3em" style="text-anchor: end; visibility: inherit; font-family: &quot;Helvetica Neue&quot;, sans-serif; font-size: 12px; font-weight: 200;" fill="rgb(50, 49, 63)" stroke="none" stroke-width="1px">-0.15</text><text x="0" y="80.45454545454544" dx="0em" dy="0.3em" style="text-anchor: end; visibility: hidden; font-family: &quot;Helvetica Neue&quot;, sans-serif; font-size: 12px; font-weight: 200;" fill="rgb(50, 49, 63)" stroke="none" stroke-width="1px">-0.1</text><text x="0" y="64.36363636363636" dx="0em" dy="0.3em" style="text-anchor: end; visibility: inherit; font-family: &quot;Helvetica Neue&quot;, sans-serif; font-size: 12px; font-weight: 200;" fill="rgb(50, 49, 63)" stroke="none" stroke-width="1px">-0.05</text><text x="0" y="48.27272727272728" dx="0em" dy="0.3em" style="text-anchor: end; visibility: hidden; font-family: &quot;Helvetica Neue&quot;, sans-serif; font-size: 12px; font-weight: 200;" fill="rgb(50, 49, 63)" stroke="none" stroke-width="1px">0</text><text x="0" y="32.18181818181819" dx="0em" dy="0.3em" style="text-anchor: end; visibility: inherit; font-family: &quot;Helvetica Neue&quot;, sans-serif; font-size: 12px; font-weight: 200;" fill="rgb(50, 49, 63)" stroke="none" stroke-width="1px">0.05</text><text x="0" y="16.090909090909093" dx="0em" dy="0.3em" style="text-anchor: end; visibility: hidden; font-family: &quot;Helvetica Neue&quot;, sans-serif; font-size: 12px; font-weight: 200;" fill="rgb(50, 49, 63)" stroke="none" stroke-width="1px">0.1</text><text x="0" y="0" dx="0em" dy="0.3em" style="text-anchor: end; visibility: hidden; font-family: &quot;Helvetica Neue&quot;, sans-serif; font-size: 12px; font-weight: 200;" fill="rgb(50, 49, 63)" stroke="none" stroke-width="1px">0.15</text></g><line x1="59.296875" y1="0" x2="59.296875" y2="177" fill="rgb(0, 0, 0)" stroke="rgb(204, 204, 204)" stroke-width="1px"></line></g></g><g transform="translate(59, 0)" clip-path="url(#clip_0)"><clipPath id="clip_0"><rect width="270" height="177"></rect></clipPath><g><g><g><line x1="0" y1="0" x2="0" y2="177" fill="rgb(0, 0, 0)" stroke="rgb(60, 60, 60)" stroke-width="1px" opacity="0.25"></line><line x1="22.55859375" y1="0" x2="22.55859375" y2="177" fill="rgb(0, 0, 0)" stroke="rgb(60, 60, 60)" stroke-width="1px" opacity="0.25"></line><line x1="45.1171875" y1="0" x2="45.1171875" y2="177" fill="rgb(0, 0, 0)" stroke="rgb(60, 60, 60)" stroke-width="1px" opacity="0.25"></line><line x1="67.67578125" y1="0" x2="67.67578125" y2="177" fill="rgb(0, 0, 0)" stroke="rgb(60, 60, 60)" stroke-width="1px" opacity="0.25"></line><line x1="90.234375" y1="0" x2="90.234375" y2="177" fill="rgb(0, 0, 0)" stroke="rgb(60, 60, 60)" stroke-width="1px" opacity="0.25"></line><line x1="112.79296875" y1="0" x2="112.79296875" y2="177" fill="rgb(0, 0, 0)" stroke="rgb(60, 60, 60)" stroke-width="1px" opacity="0.25"></line><line x1="135.3515625" y1="0" x2="135.3515625" y2="177" fill="rgb(0, 0, 0)" stroke="rgb(60, 60, 60)" stroke-width="1px" opacity="0.25"></line><line x1="157.91015625" y1="0" x2="157.91015625" y2="177" fill="rgb(0, 0, 0)" stroke="rgb(60, 60, 60)" stroke-width="1px" opacity="0.25"></line><line x1="180.46875" y1="0" x2="180.46875" y2="177" fill="rgb(0, 0, 0)" stroke="rgb(60, 60, 60)" stroke-width="1px" opacity="0.25"></line><line x1="203.02734375" y1="0" x2="203.02734375" y2="177" fill="rgb(0, 0, 0)" stroke="rgb(60, 60, 60)" stroke-width="1px" opacity="0.25"></line><line x1="225.5859375" y1="0" x2="225.5859375" y2="177" fill="rgb(0, 0, 0)" stroke="rgb(60, 60, 60)" stroke-width="1px" opacity="0.25"></line><line x1="248.14453125" y1="0" x2="248.14453125" y2="177" fill="rgb(0, 0, 0)" stroke="rgb(60, 60, 60)" stroke-width="1px" opacity="0.25"></line><line x1="270.703125" y1="0" x2="270.703125" y2="177" fill="rgb(0, 0, 0)" stroke="rgb(60, 60, 60)" stroke-width="1px" opacity="0.25"></line></g><g><line x1="0" y1="177" x2="270.703125" y2="177" fill="rgb(0, 0, 0)" stroke="rgb(60, 60, 60)" stroke-width="1px" opacity="0.25"></line><line x1="0" y1="160.9090909090909" x2="270.703125" y2="160.9090909090909" fill="rgb(0, 0, 0)" stroke="rgb(60, 60, 60)" stroke-width="1px" opacity="0.25"></line><line x1="0" y1="144.8181818181818" x2="270.703125" y2="144.8181818181818" fill="rgb(0, 0, 0)" stroke="rgb(60, 60, 60)" stroke-width="1px" opacity="0.25"></line><line x1="0" y1="128.72727272727272" x2="270.703125" y2="128.72727272727272" fill="rgb(0, 0, 0)" stroke="rgb(60, 60, 60)" stroke-width="1px" opacity="0.25"></line><line x1="0" y1="112.63636363636364" x2="270.703125" y2="112.63636363636364" fill="rgb(0, 0, 0)" stroke="rgb(60, 60, 60)" stroke-width="1px" opacity="0.25"></line><line x1="0" y1="96.54545454545455" x2="270.703125" y2="96.54545454545455" fill="rgb(0, 0, 0)" stroke="rgb(60, 60, 60)" stroke-width="1px" opacity="0.25"></line><line x1="0" y1="80.45454545454544" x2="270.703125" y2="80.45454545454544" fill="rgb(0, 0, 0)" stroke="rgb(60, 60, 60)" stroke-width="1px" opacity="0.25"></line><line x1="0" y1="64.36363636363636" x2="270.703125" y2="64.36363636363636" fill="rgb(0, 0, 0)" stroke="rgb(60, 60, 60)" stroke-width="1px" opacity="0.25"></line><line x1="0" y1="48.27272727272728" x2="270.703125" y2="48.27272727272728" fill="rgb(0, 0, 0)" stroke="rgb(60, 60, 60)" stroke-width="1px" opacity="0.25"></line><line x1="0" y1="32.18181818181819" x2="270.703125" y2="32.18181818181819" fill="rgb(0, 0, 0)" stroke="rgb(60, 60, 60)" stroke-width="1px" opacity="0.25"></line><line x1="0" y1="16.090909090909093" x2="270.703125" y2="16.090909090909093" fill="rgb(0, 0, 0)" stroke="rgb(60, 60, 60)" stroke-width="1px" opacity="0.25"></line><line x1="0" y1="0" x2="270.703125" y2="0" fill="rgb(0, 0, 0)" stroke="rgb(60, 60, 60)" stroke-width="1px" opacity="0.25"></line></g></g></g><g><g><line x1="0" y1="48.27272727272728" x2="270.703125" y2="48.27272727272728" fill="rgb(0, 0, 0)" stroke="rgb(153, 153, 153)" stroke-width="1.5px"></line></g></g><g><g><line x1="22.55859375" y1="0" x2="22.55859375" y2="177" fill="rgb(0, 0, 0)" stroke="rgb(153, 153, 153)" stroke-width="1.5px"></line></g></g><g><g><g><g><g><path stroke="rgb(255, 112, 67)" stroke-width="2px" d="M22.55859375,39.905453173951685L23.6865234375,38.2963620011102L24.814453125,37.47539711700742L25.9423828125,38.00057318257319L27.0703125,39.94341897910846L28.1982421875,38.847272496116744L29.326171875,38.75299646647815L30.4541015625,37.65073791250589L31.58203125,37.7815788291021L32.7099609375,38.3772759319738L33.837890625,38.215596497572875L34.9658203125,39.15102975058747L36.09375,40.226567369898675L37.2216796875,41.90161596338433L38.349609375,39.814896765304155L39.4775390625,39.078547833672616L40.60546875,39.151867792749385L41.7333984375,39.96829379695595L42.861328125,40.45809632988471L43.9892578125,38.94971098028003L45.1171875,38.302175302171975L46.2451171875,39.71586858134634L47.373046875,39.53424639640855L48.5009765625,40.45509699395777L49.62890625,39.720328201677205L50.7568359375,39.536923290077084L51.884765625,39.426880543344595L53.0126953125,40.648128456394005L54.140625,39.83614886892866L55.2685546875,41.15114358014881L56.396484375,43.48486759199318L57.5244140625,41.53819249453804L58.65234375,39.59782373537388L59.7802734375,39.97832986958838L60.908203125,39.43427000667165L62.0361328125,40.395106806684794L63.1640625,39.42688158463565L64.2919921875,38.07358268940919L65.419921875,37.26160335548937L66.5478515625,36.77441575629524L67.67578125,36.482103197195556L68.8037109375,38.36635212434081L69.931640625,37.952174193447036L71.0595703125,37.96112202268654L72.1875,41.5708543483357L73.3154296875,39.874875527857796L74.443359375,40.14456093418684L75.5712890625,38.504190304128144L76.69921875,40.609422618353875L77.8271484375,40.327834840590725L78.955078125,39.6439729986225L80.0830078125,40.7783831796028L81.2109375,39.91430200203155L82.3388671875,39.9107624707996L83.466796875,38.87882040144123L84.5947265625,39.804382445981815L85.72265625,42.676810601938314L86.8505859375,42.85554032924361L87.978515625,43.47768710116284L89.1064453125,46.940429736623656L90.234375,56.74171102935347L91.3623046875,114.88575198750002L92.490234375,122.48199698464624L93.6181640625,138.88265021958256L94.74609375,120.14558916498379L95.8740234375,131.04444419324443L97.001953125,150.1990286484526L98.1298828125,194.9034139358284L99.2578125,157.61986573000442L100.3857421875,128.55591848658247L101.513671875,117.55391339325578L102.6416015625,119.1912552240222L103.76953125,107.30093381702912L104.8974609375,152.6874634270777L106.025390625,143.8757485123873L107.1533203125,119.79453898070295L108.28125,105.8607224370016L109.4091796875,116.03715898554275L110.537109375,118.02374943037913L111.6650390625,122.04770368193547L112.79296875,110.55952945861196L113.9208984375,125.55026343662237L115.048828125,131.71270192058827L116.1767578125,132.57816694449912L117.3046875,115.59053591651637L118.4326171875,123.93468377448866L119.560546875,123.79208073617937L120.6884765625,113.66579239239537L121.81640625,142.60383563441184L122.9443359375,130.6168453006439L124.072265625,111.3242878783476L125.2001953125,145.8331164628595L126.328125,147.48677700440248L127.4560546875,135.60624682387532L128.583984375,135.42920018450187L129.7119140625,129.4015190825535L130.83984375,143.03436347832684L131.9677734375,156.36315995069765L133.095703125,171.82661943746513L134.2236328125,168.2319686240727L135.3515625,142.38936182636846L136.4794921875,152.11434446062125L137.607421875,124.22278737433403L138.7353515625,104.39839902979902L139.86328125,128.03249144667413L140.9912109375,131.39985709258332L142.119140625,126.4690030930002L143.2470703125,115.01449073928677L144.375,114.06323836356884L145.5029296875,153.1404828869296L146.630859375,156.24792532851978L147.7587890625,166.0934786948494L148.88671875,129.77826793021643L150.0146484375,110.30623228078187L151.142578125,136.7262812321707L152.2705078125,138.16085753071616L153.3984375,134.38742169115295L154.5263671875,143.4513620442189L155.654296875,107.95445281330244L156.7822265625,131.45339905278166L157.91015625,140.40367312519066L159.0380859375,153.75492930638327L160.166015625,145.03113817437284L161.2939453125,117.39831868513157L162.421875,127.85135150212648L163.5498046875,116.35880991916474L164.677734375,128.00001144414966L165.8056640625,109.23927838914182L166.93359375,80.2184753647926L168.0615234375,63.06344813783768L169.189453125,53.54279556462863L170.3173828125,46.8005856700847L171.4453125,44.55744160716753L172.5732421875,42.43919164622656L173.701171875,40.395877906698075L174.8291015625,40.457162361480925L175.95703125,40.75138762200527L177.0849609375,39.89810466747454L178.212890625,40.41595300560144L179.3408203125,39.69684389763228L180.46875,38.75046925754148L181.5966796875,39.984826347296234L182.724609375,40.210531425839804L183.8525390625,40.603409060620606L184.98046875,39.03695376767985L186.1083984375,39.64180787806998L187.236328125,40.77708410726797L188.3642578125,38.626249620359005L189.4921875,41.71247631890935L190.6201171875,40.47475788561701L191.748046875,40.50449034883229L192.8759765625,39.74996630357077L194.00390625,40.584524574913814L195.1318359375,39.540532251565054L196.259765625,39.9439549684011L197.3876953125,41.73073588465729L198.515625,42.03044091122035L199.6435546875,43.24008203800349L200.771484375,41.133866729418855L201.8994140625,39.35522836895882L203.02734375,39.31786370330133L204.1552734375,39.037990316252206L205.283203125,41.18715709336797L206.4111328125,42.476657159637426L207.5390625,40.16090262708997L208.6669921875,39.028904495216125L209.794921875,38.092251028437175L210.9228515625,40.104804585142915L212.05078125,40.025064020666434L213.1787109375,42.036855903671125L214.306640625,44.01629467655124L215.4345703125,40.56977596192897L216.5625,40.56150119461947L217.6904296875,40.29908198635235L218.818359375,39.62672128608281L219.9462890625,39.22330486592108L221.07421875,39.49616418913331L222.2021484375,38.88751602009677L223.330078125,39.03723629398408L224.4580078125,39.64197739385253L225.5859375,41.8070039275828L226.7138671875,42.07620173697566L227.841796875,42.75262947803401L228.9697265625,41.87121330428246L230.09765625,40.31254548918625L231.2255859375,39.8922539754378L232.353515625,39.89753365484336L233.4814453125,39.900701462486666L234.609375,40.16005649495406L235.7373046875,39.02839681593457L236.865234375,40.409037469986714L237.9931640625,41.75233091784068L239.12109375,40.49867064497582L240.2490234375,41.806110822834114L241.376953125,42.59057492954909L242.5048828125,43.57616244900075L243.6328125,41.59296956367186L244.7607421875,41.69032653097446L245.888671875,40.71892260051072L247.0166015625,39.10626189161391" style="fill: none;" fill="none"></path></g></g></g></g><g opacity="0.2"><g><g><g><path stroke="rgb(255, 112, 67)" stroke-width="2px" d="M22.55859375,39.905453173951685L23.6865234375,37.33090729740533L24.814453125,36.68727082826874L25.9423828125,38.618180235678494L27.0703125,42.479998451064944L28.1982421875,37.33090729740533L29.326171875,38.618180235678494L30.4541015625,36.04363435913217L31.58203125,37.97454376654193L32.7099609375,39.26181670481509L33.837890625,37.97454376654193L34.9658203125,40.54908904365519L36.09375,41.83636198192835L37.2216796875,44.41090725904161L38.349609375,36.68727082826874L39.4775390625,37.97454376654193L40.60546875,39.26181670481509L41.7333984375,41.19272551279175L42.861328125,41.19272551279175L43.9892578125,36.68727082826874L45.1171875,37.33090729740533L46.2451171875,41.83636198192835L47.373046875,39.26181670481509L48.5009765625,41.83636198192835L49.62890625,38.618180235678494L50.7568359375,39.26181670481509L51.884765625,39.26181670481509L53.0126953125,42.479998451064944L54.140625,38.618180235678494L55.2685546875,43.12363492020151L56.396484375,46.98545283587143L57.5244140625,38.618180235678494L58.65234375,36.68727082826874L59.7802734375,40.54908904365519L60.908203125,38.618180235678494L62.0361328125,41.83636198192835L63.1640625,37.97454376654193L64.2919921875,36.04363435913217L65.419921875,36.04363435913217L66.5478515625,36.04363435913217L67.67578125,36.04363435913217L68.8037109375,41.19272551279175L69.931640625,37.33090729740533L71.0595703125,37.97454376654193L72.1875,46.98545283587143L73.3154296875,37.33090729740533L74.443359375,40.54908904365519L75.5712890625,36.04363435913217L76.69921875,43.76727108962157L77.8271484375,39.905453173951685L78.955078125,38.618180235678494L80.0830078125,42.479998451064944L81.2109375,38.618180235678494L82.3388671875,39.905453173951685L83.466796875,37.33090729740533L84.5947265625,41.19272551279175L85.72265625,46.98545283587143L86.8505859375,43.12363492020151L87.978515625,44.41090725904161L89.1064453125,52.13454368981448L90.234375,71.44363296844743L91.3623046875,202.10181342471728L92.490234375,133.8763644803654L93.6181640625,163.4836300719868L94.74609375,92.03999758308584L95.8740234375,147.39272673563522L97.001953125,178.93090533126482L98.1298828125,261.959991866892L99.2578125,101.69454342126846L100.3857421875,84.95999762144956L101.513671875,101.05090575326572L102.6416015625,121.64726797017184L103.76953125,89.4654517065395L104.8974609375,220.7672578421506L106.025390625,130.6581761403517L107.1533203125,83.67272468317638L108.28125,84.95999762144956L109.4091796875,131.30181380835447L110.537109375,121.00363509763372L111.6650390625,128.08363505927L112.79296875,93.32726812362671L113.9208984375,148.03636440363798L115.048828125,140.95635964653707L116.1767578125,133.8763644803654L117.3046875,90.10908937454224L118.4326171875,136.45090556144714L119.560546875,123.57817617871544L120.6884765625,98.47635987671939L121.81640625,186.01090049743652L122.9443359375,112.63635979999195L124.072265625,82.38545174490322L125.2001953125,197.59635933962736L126.328125,149.96726781671697L127.4560546875,117.78545155308463L128.583984375,135.16363022544166L129.7119140625,120.35999742963097L130.83984375,163.4836300719868L131.9677734375,176.3563546592539L133.095703125,195.0218086676164L134.2236328125,162.83999240398407L135.3515625,103.62545162981206L136.4794921875,166.70181841200048L137.607421875,82.38545174490322L138.7353515625,74.66181651299651L139.86328125,163.4836300719868L140.9912109375,136.45090556144714L142.119140625,119.0727220936255L143.2470703125,97.83272220871665L144.375,112.63635979999195L145.5029296875,211.7563496719707L146.630859375,160.90908899090505L147.7587890625,180.86180874434385L148.88671875,75.30545178326693L150.0146484375,81.09817880663005L151.142578125,176.3563546592539L152.2705078125,140.31272197853434L153.3984375,128.72726793180811L154.5263671875,157.04727257381785L155.654296875,54.70908896692775L156.7822265625,166.70181841200048L157.91015625,153.82908423380417L159.0380859375,173.78181357817215L160.166015625,131.9454514763572L161.2939453125,75.94908945126966L162.421875,143.5309007276188L163.5498046875,99.11999754472212L164.677734375,145.46181373162702L165.8056640625,81.09817880663005L166.93359375,36.68727082826874L168.0615234375,37.33090729740533L169.189453125,39.26181670481509L170.3173828125,36.68727082826874L171.4453125,41.19272551279175L172.5732421875,39.26181670481509L173.701171875,37.33090729740533L174.8291015625,40.54908904365519L175.95703125,41.19272551279175L177.0849609375,38.618180235678494L178.212890625,41.19272551279175L179.3408203125,38.618180235678494L180.46875,37.33090729740533L181.5966796875,41.83636198192835L182.724609375,40.54908904365519L183.8525390625,41.19272551279175L184.98046875,36.68727082826874L186.1083984375,40.54908904365519L187.236328125,42.479998451064944L188.3642578125,35.399997889995575L189.4921875,46.34181636673483L190.6201171875,38.618180235678494L191.748046875,40.54908904365519L192.8759765625,38.618180235678494L194.00390625,41.83636198192835L195.1318359375,37.97454376654193L196.259765625,40.54908904365519L197.3876953125,44.41090725904161L198.515625,42.479998451064944L199.6435546875,45.0545437281782L200.771484375,37.97454376654193L201.8994140625,36.68727082826874L203.02734375,39.26181670481509L204.1552734375,38.618180235678494L205.283203125,44.41090725904161L206.4111328125,44.41090725904161L207.5390625,36.68727082826874L208.6669921875,37.33090729740533L209.794921875,36.68727082826874L210.9228515625,43.12363492020151L212.05078125,39.905453173951685L213.1787109375,45.0545437281782L214.306640625,46.98545283587143L215.4345703125,35.399997889995575L216.5625,40.54908904365519L217.6904296875,39.905453173951685L218.818359375,38.618180235678494L219.9462890625,38.618180235678494L221.07421875,39.905453173951685L222.2021484375,37.97454376654193L223.330078125,39.26181670481509L224.4580078125,40.54908904365519L225.5859375,45.0545437281782L226.7138671875,42.479998451064944L227.841796875,43.76727108962157L228.9697265625,40.54908904365519L230.09765625,37.97454376654193L231.2255859375,39.26181670481509L232.353515625,39.905453173951685L233.4814453125,39.905453173951685L234.609375,40.54908904365519L235.7373046875,37.33090729740533L236.865234375,42.479998451064944L237.9931640625,43.76727108962157L239.12109375,38.618180235678494L240.2490234375,43.76727108962157L241.376953125,43.76727108962157L242.5048828125,45.0545437281782L243.6328125,38.618180235678494L244.7607421875,41.83636198192835L245.888671875,39.26181670481509L247.0166015625,36.68727082826874" style="fill: none;" fill="none"></path></g></g></g></g></g></g><g transform="translate(59, 177)" clip-path="url(#clip_1)"><clipPath id="clip_1"><rect width="270" height="23"></rect></clipPath><g><g><line x1="0" y1="0" x2="0" y2="5" style="visibility: inherit;" fill="rgb(0, 0, 0)" stroke="rgb(204, 204, 204)" stroke-width="1px"></line><line x1="22.55859375" y1="0" x2="22.55859375" y2="5" style="visibility: inherit;" fill="rgb(0, 0, 0)" stroke="rgb(204, 204, 204)" stroke-width="1px"></line><line x1="45.1171875" y1="0" x2="45.1171875" y2="5" style="visibility: inherit;" fill="rgb(0, 0, 0)" stroke="rgb(204, 204, 204)" stroke-width="1px"></line><line x1="67.67578125" y1="0" x2="67.67578125" y2="5" style="visibility: inherit;" fill="rgb(0, 0, 0)" stroke="rgb(204, 204, 204)" stroke-width="1px"></line><line x1="90.234375" y1="0" x2="90.234375" y2="5" style="visibility: inherit;" fill="rgb(0, 0, 0)" stroke="rgb(204, 204, 204)" stroke-width="1px"></line><line x1="112.79296875" y1="0" x2="112.79296875" y2="5" style="visibility: inherit;" fill="rgb(0, 0, 0)" stroke="rgb(204, 204, 204)" stroke-width="1px"></line><line x1="135.3515625" y1="0" x2="135.3515625" y2="5" style="visibility: inherit;" fill="rgb(0, 0, 0)" stroke="rgb(204, 204, 204)" stroke-width="1px"></line><line x1="157.91015625" y1="0" x2="157.91015625" y2="5" style="visibility: inherit;" fill="rgb(0, 0, 0)" stroke="rgb(204, 204, 204)" stroke-width="1px"></line><line x1="180.46875" y1="0" x2="180.46875" y2="5" style="visibility: inherit;" fill="rgb(0, 0, 0)" stroke="rgb(204, 204, 204)" stroke-width="1px"></line><line x1="203.02734375" y1="0" x2="203.02734375" y2="5" style="visibility: inherit;" fill="rgb(0, 0, 0)" stroke="rgb(204, 204, 204)" stroke-width="1px"></line><line x1="225.5859375" y1="0" x2="225.5859375" y2="5" style="visibility: inherit;" fill="rgb(0, 0, 0)" stroke="rgb(204, 204, 204)" stroke-width="1px"></line><line x1="248.14453125" y1="0" x2="248.14453125" y2="5" style="visibility: inherit;" fill="rgb(0, 0, 0)" stroke="rgb(204, 204, 204)" stroke-width="1px"></line><line x1="270.703125" y1="0" x2="270.703125" y2="5" style="visibility: inherit;" fill="rgb(0, 0, 0)" stroke="rgb(204, 204, 204)" stroke-width="1px"></line></g><g transform="translate(0, 8)"><text x="0" y="0" dx="0em" dy="0.95em" style="text-anchor: middle; visibility: hidden; font-family: &quot;Helvetica Neue&quot;, sans-serif; font-size: 12px; font-weight: 200;" fill="rgb(50, 49, 63)" stroke="none" stroke-width="1px">-20</text><text x="22.55859375" y="0" dx="0em" dy="0.95em" style="text-anchor: middle; visibility: inherit; font-family: &quot;Helvetica Neue&quot;, sans-serif; font-size: 12px; font-weight: 200;" fill="rgb(50, 49, 63)" stroke="none" stroke-width="1px">0</text><text x="45.1171875" y="0" dx="0em" dy="0.95em" style="text-anchor: middle; visibility: hidden; font-family: &quot;Helvetica Neue&quot;, sans-serif; font-size: 12px; font-weight: 200;" fill="rgb(50, 49, 63)" stroke="none" stroke-width="1px">20</text><text x="67.67578125" y="0" dx="0em" dy="0.95em" style="text-anchor: middle; visibility: inherit; font-family: &quot;Helvetica Neue&quot;, sans-serif; font-size: 12px; font-weight: 200;" fill="rgb(50, 49, 63)" stroke="none" stroke-width="1px">40</text><text x="90.234375" y="0" dx="0em" dy="0.95em" style="text-anchor: middle; visibility: hidden; font-family: &quot;Helvetica Neue&quot;, sans-serif; font-size: 12px; font-weight: 200;" fill="rgb(50, 49, 63)" stroke="none" stroke-width="1px">60</text><text x="112.79296875" y="0" dx="0em" dy="0.95em" style="text-anchor: middle; visibility: inherit; font-family: &quot;Helvetica Neue&quot;, sans-serif; font-size: 12px; font-weight: 200;" fill="rgb(50, 49, 63)" stroke="none" stroke-width="1px">80</text><text x="135.3515625" y="0" dx="0em" dy="0.95em" style="text-anchor: middle; visibility: hidden; font-family: &quot;Helvetica Neue&quot;, sans-serif; font-size: 12px; font-weight: 200;" fill="rgb(50, 49, 63)" stroke="none" stroke-width="1px">100</text><text x="157.91015625" y="0" dx="0em" dy="0.95em" style="text-anchor: middle; visibility: inherit; font-family: &quot;Helvetica Neue&quot;, sans-serif; font-size: 12px; font-weight: 200;" fill="rgb(50, 49, 63)" stroke="none" stroke-width="1px">120</text><text x="180.46875" y="0" dx="0em" dy="0.95em" style="text-anchor: middle; visibility: hidden; font-family: &quot;Helvetica Neue&quot;, sans-serif; font-size: 12px; font-weight: 200;" fill="rgb(50, 49, 63)" stroke="none" stroke-width="1px">140</text><text x="203.02734375" y="0" dx="0em" dy="0.95em" style="text-anchor: middle; visibility: inherit; font-family: &quot;Helvetica Neue&quot;, sans-serif; font-size: 12px; font-weight: 200;" fill="rgb(50, 49, 63)" stroke="none" stroke-width="1px">160</text><text x="225.5859375" y="0" dx="0em" dy="0.95em" style="text-anchor: middle; visibility: hidden; font-family: &quot;Helvetica Neue&quot;, sans-serif; font-size: 12px; font-weight: 200;" fill="rgb(50, 49, 63)" stroke="none" stroke-width="1px">180</text><text x="248.14453125" y="0" dx="0em" dy="0.95em" style="text-anchor: middle; visibility: inherit; font-family: &quot;Helvetica Neue&quot;, sans-serif; font-size: 12px; font-weight: 200;" fill="rgb(50, 49, 63)" stroke="none" stroke-width="1px">200</text><text x="270.703125" y="0" dx="0em" dy="0.95em" style="text-anchor: middle; visibility: hidden; font-family: &quot;Helvetica Neue&quot;, sans-serif; font-size: 12px; font-weight: 200;" fill="rgb(50, 49, 63)" stroke="none" stroke-width="1px">220</text></g><line x1="0" y1="0" x2="270.703125" y2="0" fill="rgb(0, 0, 0)" stroke="rgb(204, 204, 204)" stroke-width="1px"></line></g></g></g></g></svg>